<?xml version="1.0" encoding="UTF-8" standalone="no"?>
<!-- Created with Inkscape (http://www.inkscape.org/) -->

<svg
   xmlns:dc="http://purl.org/dc/elements/1.1/"
   xmlns:cc="http://creativecommons.org/ns#"
   xmlns:rdf="http://www.w3.org/1999/02/22-rdf-syntax-ns#"
   xmlns:svg="http://www.w3.org/2000/svg"
   xmlns="http://www.w3.org/2000/svg"
   xmlns:sodipodi="http://sodipodi.sourceforge.net/DTD/sodipodi-0.dtd"
   xmlns:inkscape="http://www.inkscape.org/namespaces/inkscape"
   width="19.84375mm"
   height="19.84375mm"
   viewBox="0 0 19.84375 19.84375"
   version="1.1"
   id="svg1628"
   inkscape:version="0.92.2 5c3e80d, 2017-08-06"
   sodipodi:docname="tab_story.svg">
  <defs
     id="defs1622" />
  <sodipodi:namedview
     id="base"
     pagecolor="#ffffff"
     bordercolor="#666666"
     borderopacity="1.0"
     inkscape:pageopacity="0.0"
     inkscape:pageshadow="2"
     inkscape:zoom="0.35"
     inkscape:cx="2431.5731"
     inkscape:cy="-1066.9984"
     inkscape:document-units="mm"
     inkscape:current-layer="layer1"
     showgrid="false"
     inkscape:window-width="2560"
     inkscape:window-height="1345"
     inkscape:window-x="0"
     inkscape:window-y="0"
     inkscape:window-maximized="1" />
  <metadata
     id="metadata1625">
    <rdf:RDF>
      <cc:Work
         rdf:about="">
        <dc:format>image/svg+xml</dc:format>
        <dc:type
           rdf:resource="http://purl.org/dc/dcmitype/StillImage" />
        <dc:title></dc:title>
      </cc:Work>
    </rdf:RDF>
  </metadata>
  <g
     inkscape:label="Layer 1"
     inkscape:groupmode="layer"
     id="layer1"
     transform="translate(673.21383,153.3204)">
    <g
       id="g974"
       transform="matrix(0.83333333,0,0,0.83333333,-882.69803,-216.7553)">
      <rect
         style="opacity:1;fill:#c2b72d;fill-opacity:0.59090905;stroke:none;stroke-width:0.14794083"
         id="rect895"
         width="23.8125"
         height="23.8125"
         x="251.38104"
         y="76.12188" />
      <path
         inkscape:connector-curvature="0"
         id="rect941"
         d="m 258.93267,81.153308 c -0.58689,0 -1.05936,0.47248 -1.05936,1.059372 v 11.653088 c 0,0.586892 0.47247,1.059372 1.05936,1.059372 h 8.13791 c 0.58689,0 1.05937,-0.47248 1.05937,-1.059372 V 82.21268 c 0,-0.586892 -0.47248,-1.059372 -1.05937,-1.059372 z m 0.81861,1.974284 h 6.54885 c 0.29344,0 0.52968,0.23624 0.52968,0.529685 0,0.293447 -0.23624,0.529687 -0.52968,0.529687 h -6.54885 c -0.29344,0 -0.52968,-0.23624 -0.52968,-0.529687 0,-0.293445 0.23624,-0.529685 0.52968,-0.529685 z m 0,2.178934 h 6.54885 c 0.29344,0 0.52968,0.23624 0.52968,0.529686 0,0.293446 -0.23624,0.529687 -0.52968,0.529687 h -6.54885 c -0.29344,0 -0.52968,-0.236241 -0.52968,-0.529687 0,-0.293446 0.23624,-0.529686 0.52968,-0.529686 z m 0,2.178935 h 6.54885 c 0.29344,0 0.52968,0.236241 0.52968,0.529686 0,0.293446 -0.23624,0.529685 -0.52968,0.529685 h -6.54885 c -0.29344,0 -0.52968,-0.236239 -0.52968,-0.529685 0,-0.293445 0.23624,-0.529686 0.52968,-0.529686 z m 0,2.178936 h 6.54885 c 0.29344,0 0.52968,0.23624 0.52968,0.529685 0,0.293446 -0.23624,0.529685 -0.52968,0.529685 h -6.54885 c -0.29344,0 -0.52968,-0.236239 -0.52968,-0.529685 0,-0.293445 0.23624,-0.529685 0.52968,-0.529685 z m 0,2.178934 h 6.54885 c 0.29344,0 0.52968,0.23624 0.52968,0.529686 0,0.293445 -0.23624,0.529686 -0.52968,0.529686 h -6.54885 c -0.29344,0 -0.52968,-0.236241 -0.52968,-0.529686 0,-0.293446 0.23624,-0.529686 0.52968,-0.529686 z"
         style="opacity:1;fill:#ffffff;fill-opacity:1;stroke:none;stroke-width:0.04815326" />
    </g>
  </g>
</svg>
