<?xml version="1.0" encoding="UTF-8" standalone="no"?>
<!-- Created with Inkscape (http://www.inkscape.org/) -->

<svg
   xmlns:dc="http://purl.org/dc/elements/1.1/"
   xmlns:cc="http://creativecommons.org/ns#"
   xmlns:rdf="http://www.w3.org/1999/02/22-rdf-syntax-ns#"
   xmlns:svg="http://www.w3.org/2000/svg"
   xmlns="http://www.w3.org/2000/svg"
   xmlns:sodipodi="http://sodipodi.sourceforge.net/DTD/sodipodi-0.dtd"
   xmlns:inkscape="http://www.inkscape.org/namespaces/inkscape"
   width="19.84375mm"
   height="19.84375mm"
   viewBox="0 0 19.84375 19.84375"
   version="1.1"
   id="svg1037"
   inkscape:version="0.92.2 5c3e80d, 2017-08-06"
   sodipodi:docname="tab_people.svg">
  <defs
     id="defs1031" />
  <sodipodi:namedview
     id="base"
     pagecolor="#ffffff"
     bordercolor="#666666"
     borderopacity="1.0"
     inkscape:pageopacity="0.0"
     inkscape:pageshadow="2"
     inkscape:zoom="1"
     inkscape:cx="480.14448"
     inkscape:cy="-212.71265"
     inkscape:document-units="mm"
     inkscape:current-layer="layer1"
     showgrid="false"
     inkscape:window-width="2560"
     inkscape:window-height="1345"
     inkscape:window-x="0"
     inkscape:window-y="0"
     inkscape:window-maximized="1" />
  <metadata
     id="metadata1034">
    <rdf:RDF>
      <cc:Work
         rdf:about="">
        <dc:format>image/svg+xml</dc:format>
        <dc:type
           rdf:resource="http://purl.org/dc/dcmitype/StillImage" />
        <dc:title></dc:title>
      </cc:Work>
    </rdf:RDF>
  </metadata>
  <g
     inkscape:label="Layer 1"
     inkscape:groupmode="layer"
     id="layer1"
     transform="translate(156.89835,-72.709362)">
    <g
       transform="matrix(0.83333333,0,0,0.83333333,-366.14662,29.576173)"
       id="g987">
      <rect
         y="51.759827"
         x="251.09793"
         height="23.8125"
         width="23.8125"
         id="rect891"
         style="opacity:1;fill:#ffb381;fill-opacity:1;stroke:none;stroke-width:0.14794083" />
      <path
         style="opacity:1;fill:#ffffff;fill-opacity:1;stroke:none;stroke-width:0.03978866"
         d="m 262.97773,56.940697 c -0.91195,-3.1e-5 -1.65132,0.881704 -1.65134,1.96946 3.9e-4,0.522959 0.17521,1.024289 0.48579,1.393404 -0.95849,0.373468 -1.59592,1.173719 -1.65394,2.076568 -0.27422,-0.290475 -0.62279,-0.522539 -1.01864,-0.678149 0.31023,-0.369085 0.48472,-0.870069 0.4851,-1.392702 -2e-5,-1.087756 -0.73929,-1.969592 -1.65124,-1.969561 -0.91196,-3.1e-5 -1.65134,0.881805 -1.65135,1.969561 3.9e-4,0.522958 0.17521,1.024189 0.4858,1.393304 -1.0091,0.392666 -1.65794,1.255801 -1.65947,2.207545 8.2e-4,0.03983 0.003,0.0797 0.007,0.119443 v 4.480176 l 4.1039,1.881708 a 5.1604287,4.4336076 0 0 1 1.61614,-0.992051 3.0163072,3.5977641 0 0 1 -0.88715,-2.545214 3.0163072,3.5977641 0 0 1 3.01628,-3.597741 3.0163072,3.5977641 0 0 1 3.01636,3.597741 3.0163072,3.5977641 0 0 1 -0.88614,2.544212 5.1604287,4.4336076 0 0 1 1.60621,0.987939 l 4.09287,-1.876594 V 64.02957 h 0.022 c 0.002,-0.03976 0.004,-0.07961 0.004,-0.119443 -8.2e-4,-0.951847 -0.64978,-1.815227 -1.65887,-2.208147 0.31023,-0.369085 0.48482,-0.870069 0.4852,-1.392702 -2e-5,-1.087756 -0.73939,-1.969592 -1.65134,-1.969561 -0.91197,-3.1e-5 -1.65124,0.881805 -1.65126,1.969561 4e-4,0.522958 0.17522,1.024188 0.4858,1.393304 -0.40928,0.160132 -0.7682,0.401929 -1.0468,0.705228 -0.0458,-0.912996 -0.68456,-1.726493 -1.65275,-2.104849 0.31022,-0.369086 0.48471,-0.870173 0.48509,-1.392804 -1e-5,-1.087756 -0.73929,-1.969491 -1.65125,-1.96946 -0.004,1.92e-4 -0.008,3.88e-4 -0.0111,6.16e-4 -0.004,-2.33e-4 -0.01,-4.26e-4 -0.0158,-6.16e-4 z"
         id="path907"
         inkscape:connector-curvature="0" />
    </g>
  </g>
</svg>
