<?xml version="1.0" encoding="UTF-8" standalone="no"?>
<svg
   xmlns:dc="http://purl.org/dc/elements/1.1/"
   xmlns:cc="http://creativecommons.org/ns#"
   xmlns:rdf="http://www.w3.org/1999/02/22-rdf-syntax-ns#"
   xmlns:svg="http://www.w3.org/2000/svg"
   xmlns="http://www.w3.org/2000/svg"
   xmlns:sodipodi="http://sodipodi.sourceforge.net/DTD/sodipodi-0.dtd"
   xmlns:inkscape="http://www.inkscape.org/namespaces/inkscape"
   width="150"
   height="134.52095"
   id="svg3884"
   version="1.1"
   inkscape:version="1.0.2 (e86c870879, 2021-01-15)"
   sodipodi:docname="thought_bubble.svg">
  <defs
     id="defs3886">
    <inkscape:perspective
       sodipodi:type="inkscape:persp3d"
       inkscape:vp_x="0 : 526.18109 : 1"
       inkscape:vp_y="0 : 1000 : 0"
       inkscape:vp_z="744.09448 : 526.18109 : 1"
       inkscape:persp3d-origin="372.04724 : 350.78739 : 1"
       id="perspective3892" />
    <inkscape:perspective
       id="perspective3875"
       inkscape:persp3d-origin="0.5 : 0.33333333 : 1"
       inkscape:vp_z="1 : 0.5 : 1"
       inkscape:vp_y="0 : 1000 : 0"
       inkscape:vp_x="0 : 0.5 : 1"
       sodipodi:type="inkscape:persp3d" />
    <inkscape:perspective
       id="perspective3951"
       inkscape:persp3d-origin="0.5 : 0.33333333 : 1"
       inkscape:vp_z="1 : 0.5 : 1"
       inkscape:vp_y="0 : 1000 : 0"
       inkscape:vp_x="0 : 0.5 : 1"
       sodipodi:type="inkscape:persp3d" />
    <filter
       color-interpolation-filters="sRGB"
       inkscape:collect="always"
       id="filter3807"
       x="-0.1124163"
       width="1.2248327"
       y="-0.12868091"
       height="1.2573618">
      <feGaussianBlur
         inkscape:collect="always"
         stdDeviation="1.4999165"
         id="feGaussianBlur3809" />
    </filter>
  </defs>
  <sodipodi:namedview
     id="base"
     pagecolor="#ffffff"
     bordercolor="#666666"
     borderopacity="1.0"
     inkscape:pageopacity="0.0"
     inkscape:pageshadow="2"
     inkscape:zoom="2.8"
     inkscape:cx="122.1047"
     inkscape:cy="64.620527"
     inkscape:document-units="px"
     inkscape:current-layer="g3811"
     showgrid="false"
     inkscape:window-width="2560"
     inkscape:window-height="1343"
     inkscape:window-x="0"
     inkscape:window-y="0"
     inkscape:window-maximized="1"
     inkscape:document-rotation="0" />
  <metadata
     id="metadata3889">
    <rdf:RDF>
      <cc:Work
         rdf:about="">
        <dc:format>image/svg+xml</dc:format>
        <dc:type
           rdf:resource="http://purl.org/dc/dcmitype/StillImage" />
        <dc:title />
      </cc:Work>
    </rdf:RDF>
  </metadata>
  <g
     inkscape:label="Calque 1"
     inkscape:groupmode="layer"
     id="layer1"
     transform="translate(-260.71428,-430.45885)">
    <g
       id="g3811"
       transform="matrix(3.8244193,0,0,3.8244193,-577.84388,-251.33982)">
      <path
         id="path3633-6-4"
         d="m 235.80148,181.88075 c -1.70659,0.0803 -3.16924,1.00202 -4.375,3.34375 -3.88006,-1.49637 -6.46681,0.81929 -5.875,4.5 -2.48764,1.20812 -3.63203,4.9801 2,6.125 -0.6413,1.9221 0.26638,3.32787 2.625,4.25 0.56657,1.81849 1.40934,3.19505 3.625,2.375 2.08058,1.93319 4.50276,1.81675 7.25,-0.25 2.65759,0.82051 5.30587,0.7102 7.125,-2.625 1.87715,-0.0869 4.86471,0.11903 4.375,-4 1.72986,-1.14139 3.55418,-2.69499 1.25,-5 0.17155,-2.64969 -0.64958,-5.57199 -4.25,-5.75 -2.46772,-3.37895 -5.5334,-3.43775 -9.375,-1.875 -1.56293,-0.7155 -3.04765,-1.15619 -4.375,-1.09375 z m -6.6875,20.96875 c -0.93198,0 -1.6875,0.55964 -1.6875,1.25 0,0.69036 0.75552,1.25 1.6875,1.25 0.93198,0 1.6875,-0.55964 1.6875,-1.25 0,-0.69036 -0.75552,-1.25 -1.6875,-1.25 z m -2.6875,3.25 c -0.65584,0 -1.1875,0.40556 -1.1875,0.875 0,0.46944 0.53166,0.84375 1.1875,0.84375 0.65584,0 1.1875,-0.37431 1.1875,-0.84375 0,-0.46944 -0.53166,-0.875 -1.1875,-0.875 z m -3.03125,3.09375 c -0.30376,0 -0.53125,0.15597 -0.53125,0.34375 0,0.18778 0.22749,0.3125 0.53125,0.3125 0.30376,0 0.5625,-0.12472 0.5625,-0.3125 0,-0.18778 -0.25874,-0.34375 -0.5625,-0.34375 z"
         style="fill:#000000;fill-opacity:0.4271906;stroke:none;filter:url(#filter3807)" />
      <path
         id="path3633-6"
         d="m 235.9375,179.375 c -1.70659,0.0803 -3.16924,1.00202 -4.375,3.34375 -3.88006,-1.49637 -6.46681,0.81929 -5.875,4.5 -2.48764,1.20812 -3.63203,4.9801 2,6.125 -0.6413,1.9221 0.26638,3.32787 2.625,4.25 0.56657,1.81849 1.40934,3.19505 3.625,2.375 2.08058,1.93319 4.50276,1.81675 7.25,-0.25 2.65759,0.82051 5.30587,0.7102 7.125,-2.625 1.87715,-0.0869 4.86471,0.11903 4.375,-4 1.72986,-1.14139 3.55418,-2.69499 1.25,-5 0.17155,-2.64969 -0.64958,-5.57199 -4.25,-5.75 -2.46772,-3.37895 -5.5334,-3.43775 -9.375,-1.875 -1.56293,-0.7155 -3.04765,-1.15619 -4.375,-1.09375 z m -6.6875,20.96875 c -0.93198,0 -1.6875,0.55964 -1.6875,1.25 0,0.69036 0.75552,1.25 1.6875,1.25 0.93198,0 1.6875,-0.55964 1.6875,-1.25 0,-0.69036 -0.75552,-1.25 -1.6875,-1.25 z m -2.6875,3.25 c -0.65584,0 -1.1875,0.40556 -1.1875,0.875 0,0.46944 0.53166,0.84375 1.1875,0.84375 0.65584,0 1.1875,-0.37431 1.1875,-0.84375 0,-0.46944 -0.53166,-0.875 -1.1875,-0.875 z m -3.03125,3.09375 c -0.30376,0 -0.53125,0.15597 -0.53125,0.34375 0,0.18778 0.22749,0.3125 0.53125,0.3125 0.30376,0 0.5625,-0.12472 0.5625,-0.3125 0,-0.18778 -0.25874,-0.34375 -0.5625,-0.34375 z"
         style="fill:#ffffff;fill-opacity:1;stroke:#000000;stroke-width:0.26147762px;stroke-linecap:butt;stroke-linejoin:miter;stroke-opacity:1" />
    </g>
  </g>
</svg>
